<?xml version="1.0" encoding="utf-8"?>
<!-- Generator: Adobe Illustrator 24.0.0, SVG Export Plug-In . SVG Version: 6.00 Build 0)  -->
<svg version="1.1" id="Capa_1" xmlns="http://www.w3.org/2000/svg" xmlns:xlink="http://www.w3.org/1999/xlink" x="0px" y="0px"
	 viewBox="0 0 25 25" style="enable-background:new 0 0 25 25;" xml:space="preserve">
<style type="text/css">
	.st0{fill:#9D9D9C;}
</style>
<path class="st0" d="M4.6,0l1.8,6.7v3.2H8V6.7L9.9,0H8.3L7.6,3C7.4,3.9,7.3,4.6,7.3,4.9h0C7.1,4.4,7,3.8,6.9,3L6.2,0H4.6z M11.8,2.5
	c-0.5,0-1,0.1-1.3,0.3c-0.3,0.2-0.6,0.6-0.7,1C9.6,4.3,9.5,5,9.5,5.7v1c0,0.8,0.1,1.4,0.2,1.8c0.1,0.5,0.4,0.8,0.7,1
	c0.3,0.2,0.8,0.3,1.3,0.3c0.6,0,1-0.1,1.3-0.3c0.3-0.2,0.6-0.6,0.7-1C13.9,8.2,14,7.6,14,6.8v-1c0-0.8-0.1-1.4-0.2-1.9
	c-0.1-0.5-0.4-0.8-0.7-1C12.7,2.6,12.3,2.5,11.8,2.5z M14.8,2.7v5.4c0,0.7,0.1,1.2,0.3,1.5c0.2,0.3,0.6,0.5,1.1,0.5
	c0.7,0,1.2-0.3,1.6-1h0L18,9.9h1.3V2.7h-1.6v5.7c-0.1,0.1-0.2,0.2-0.3,0.3c-0.1,0.1-0.3,0.1-0.4,0.1c-0.2,0-0.3-0.1-0.4-0.2
	c-0.1-0.1-0.1-0.4-0.1-0.7V2.7H14.8z M11.8,3.6c0.2,0,0.4,0.1,0.5,0.4c0.1,0.2,0.1,0.6,0.1,1.1v2.2c0,0.5,0,0.9-0.1,1.2
	c-0.1,0.2-0.2,0.4-0.5,0.4c-0.2,0-0.4-0.1-0.5-0.4c-0.1-0.2-0.1-0.6-0.1-1.2V5.1c0-0.5,0-0.9,0.1-1.1C11.4,3.8,11.5,3.6,11.8,3.6z
	 M3.8,11.3c-1.4,0-2.5,1.1-2.5,2.5v8.8c0,1.4,1.1,2.5,2.5,2.5h17.5c1.4,0,2.5-1.1,2.5-2.5v-8.8c0-1.4-1.1-2.5-2.5-2.5H3.8z
	 M12.6,13.8h1.3V17h0c0.1-0.2,0.3-0.4,0.5-0.6s0.5-0.2,0.7-0.2c0.3,0,0.6,0.1,0.8,0.3c0.2,0.2,0.3,0.5,0.4,0.8
	c0.1,0.4,0.1,0.9,0.1,1.6v1h0c0,0.9-0.1,1.6-0.3,2c-0.2,0.4-0.6,0.6-1,0.6c-0.3,0-0.5-0.1-0.7-0.2c-0.2-0.1-0.4-0.3-0.5-0.5h0
	l-0.1,0.6h-1.1V13.8z M4.4,14.1h4.1v1.1H7.1v7.2H5.7v-7.2H4.4V14.1z M18.9,16.2c0.5,0,0.8,0.1,1.1,0.3c0.3,0.2,0.4,0.4,0.5,0.8
	c0.1,0.4,0.2,0.9,0.2,1.5v1h-2.3v0.3c0,0.4,0,0.7,0,0.9c0,0.2,0.1,0.3,0.1,0.4c0.1,0.1,0.2,0.1,0.3,0.1c0.2,0,0.3-0.1,0.4-0.2
	c0.1-0.2,0.1-0.4,0.1-0.8l1.2,0.1c0,0.1,0,0.1,0,0.2c0,0.6-0.2,1-0.5,1.3c-0.3,0.3-0.7,0.4-1.3,0.4c-0.7,0-1.2-0.2-1.4-0.6
	c-0.3-0.4-0.4-1.1-0.4-2v-1.1c0-0.9,0.1-1.6,0.4-2S18.2,16.2,18.9,16.2z M8,16.3h1.4v4.5c0,0.3,0,0.5,0.1,0.6
	c0.1,0.1,0.2,0.2,0.3,0.2c0.1,0,0.2,0,0.3-0.1c0.1-0.1,0.2-0.2,0.2-0.3v-4.8h1.4v6.1h0h-1.1l-0.1-0.7h0c-0.3,0.6-0.7,0.8-1.3,0.8
	c-0.4,0-0.7-0.1-0.9-0.4C8.1,21.8,8,21.4,8,20.9V16.3z M18.8,17.1c-0.1,0-0.3,0-0.3,0.1c-0.1,0.1-0.1,0.2-0.1,0.4c0,0.2,0,0.5,0,0.9
	V19h1v-0.4c0-0.4,0-0.7,0-0.9c0-0.2-0.1-0.3-0.1-0.4S19,17.1,18.8,17.1z M14.5,17.2c-0.1,0-0.3,0.1-0.4,0.2
	c-0.1,0.1-0.2,0.2-0.2,0.4v3.5c0.1,0.1,0.1,0.2,0.2,0.2c0.1,0.1,0.2,0.1,0.3,0.1c0.1,0,0.3-0.1,0.3-0.2c0.1-0.1,0.1-0.3,0.2-0.5
	c0-0.3,0.1-0.6,0.1-1V19c0-0.5,0-0.8,0-1.1c0-0.3-0.1-0.4-0.2-0.6C14.7,17.2,14.6,17.2,14.5,17.2z"/>
</svg>
