<svg id="Capa_1" data-name="Capa 1" xmlns="http://www.w3.org/2000/svg" viewBox="0 0 1739.95 251.26"><defs><style>.cls-1{fill:#fff;}.cls-2{fill:#e30613;}</style></defs><title>LogoCoded</title><rect class="cls-1" x="1488.97" y="57.39" width="35.89" height="35.89" transform="translate(1359.07 1524.86) rotate(-90)"/><rect class="cls-2" x="1417.18" y="236.86" width="35.89" height="35.89" transform="translate(1107.81 1632.55) rotate(-90)"/><rect class="cls-2" x="1417.18" y="200.97" width="35.89" height="35.89" transform="translate(1143.7 1596.65) rotate(-90)"/><rect class="cls-2" x="1417.18" y="165.07" width="35.89" height="35.89" transform="translate(1179.6 1560.76) rotate(-90)"/><rect class="cls-2" x="1417.18" y="129.18" width="35.89" height="35.89" transform="translate(1215.49 1524.86) rotate(-90)"/><rect class="cls-2" x="1381.28" y="129.18" width="35.89" height="35.89" transform="translate(1179.6 1488.97) rotate(-90)"/><rect class="cls-2" x="1345.39" y="129.18" width="35.89" height="35.89" transform="translate(1143.7 1453.07) rotate(-90)"/><rect class="cls-2" x="1309.49" y="129.18" width="35.89" height="35.89" transform="translate(1107.81 1417.18) rotate(-90)"/><rect class="cls-2" x="1273.6" y="165.07" width="35.89" height="35.89" transform="translate(1036.02 1417.18) rotate(-90)"/><rect class="cls-2" x="1273.6" y="200.97" width="35.89" height="35.89" transform="translate(1000.12 1453.07) rotate(-90)"/><rect class="cls-2" x="1273.6" y="236.86" width="35.89" height="35.89" transform="translate(964.23 1488.97) rotate(-90)"/><rect class="cls-2" x="1417.18" y="93.28" width="35.89" height="35.89" transform="translate(1251.39 1488.97) rotate(-90)"/><rect class="cls-2" x="1417.18" y="57.39" width="35.89" height="35.89" transform="translate(1287.28 1453.07) rotate(-90)"/><rect class="cls-1" x="1524.86" y="93.28" width="35.89" height="35.89" transform="translate(1359.07 1596.65) rotate(-90)"/><rect class="cls-1" x="1560.76" y="129.18" width="35.89" height="35.89" transform="translate(1359.07 1668.44) rotate(-90)"/><rect class="cls-1" x="1596.65" y="165.07" width="35.89" height="35.89" transform="translate(1359.07 1740.23) rotate(-90)"/><rect class="cls-1" x="1560.76" y="200.97" width="35.89" height="35.89" transform="translate(1287.28 1740.23) rotate(-90)"/><rect class="cls-1" x="1524.86" y="236.86" width="35.89" height="35.89" transform="translate(1215.49 1740.23) rotate(-90)"/><rect class="cls-1" x="1488.97" y="272.75" width="35.89" height="35.89" transform="translate(1143.7 1740.23) rotate(-90)"/><rect class="cls-1" x="180.4" y="57.39" width="35.89" height="35.89" transform="translate(50.5 216.29) rotate(-90)"/><rect class="cls-1" x="144.3" y="93.28" width="35.89" height="35.89" transform="translate(-21.49 216.09) rotate(-90)"/><rect class="cls-1" x="108.41" y="129.18" width="35.89" height="35.89" transform="translate(-93.28 216.09) rotate(-90)"/><rect class="cls-1" x="72.51" y="165.07" width="35.89" height="35.89" transform="translate(-165.07 216.09) rotate(-90)"/><rect class="cls-1" x="108.41" y="200.97" width="35.89" height="35.89" transform="translate(-165.07 287.88) rotate(-90)"/><rect class="cls-1" x="144.3" y="236.86" width="35.89" height="35.89" transform="translate(-165.07 359.67) rotate(-90)"/><rect class="cls-1" x="251.38" y="272.75" width="35.89" height="35.89" transform="translate(-93.88 502.65) rotate(-90)"/><rect class="cls-1" x="180.2" y="272.75" width="35.89" height="35.89" transform="translate(-165.07 431.46) rotate(-90)"/><rect class="cls-1" x="251.38" y="236.86" width="35.89" height="35.89" transform="translate(-57.99 466.75) rotate(-90)"/><rect class="cls-1" x="287.28" y="200.97" width="35.89" height="35.89" transform="translate(13.8 466.75) rotate(-90)"/><rect class="cls-1" x="287.28" y="165.07" width="35.89" height="35.89" transform="translate(49.69 430.86) rotate(-90)"/><rect class="cls-1" x="287.28" y="129.18" width="35.89" height="35.89" transform="translate(85.59 394.96) rotate(-90)"/><rect class="cls-1" x="323.17" y="93.28" width="35.89" height="35.89" transform="translate(157.38 394.96) rotate(-90)"/><rect class="cls-1" x="323.17" y="57.39" width="35.89" height="35.89" transform="translate(193.27 359.07) rotate(-90)"/><rect class="cls-2" x="1381.28" y="272.75" width="35.89" height="35.89" transform="translate(1036.02 1632.55) rotate(-90)"/><rect class="cls-2" x="1345.39" y="272.75" width="35.89" height="35.89" transform="translate(1000.12 1596.65) rotate(-90)"/><rect class="cls-2" x="1309.49" y="272.75" width="35.89" height="35.89" transform="translate(964.23 1560.76) rotate(-90)"/><rect class="cls-1" x="1776.57" y="272.75" width="35.89" height="35.89" transform="translate(1431.3 2027.83) rotate(-90)"/><rect class="cls-1" x="1740.68" y="272.75" width="35.89" height="35.89" transform="translate(1395.41 1991.94) rotate(-90)"/><rect class="cls-1" x="1704.78" y="272.75" width="35.89" height="35.89" transform="translate(1359.52 1956.04) rotate(-90)"/><rect class="cls-1" x="1668.89" y="272.75" width="35.89" height="35.89" transform="translate(1323.62 1920.15) rotate(-90)"/><rect class="cls-2" x="1196.63" y="272.75" width="35.89" height="35.89" transform="translate(851.36 1447.89) rotate(-90)"/><rect class="cls-2" x="1160.74" y="272.75" width="35.89" height="35.89" transform="translate(815.47 1412) rotate(-90)"/><rect class="cls-2" x="1124.84" y="272.75" width="35.89" height="35.89" transform="translate(779.58 1376.1) rotate(-90)"/><rect class="cls-2" x="1088.95" y="272.75" width="35.89" height="35.89" transform="translate(743.68 1340.21) rotate(-90)"/><rect class="cls-2" x="1053.05" y="236.86" width="35.89" height="35.89" transform="translate(743.68 1268.42) rotate(-90)"/><rect class="cls-2" x="1053.05" y="200.97" width="35.89" height="35.89" transform="translate(779.58 1232.53) rotate(-90)"/><rect class="cls-2" x="1088.95" y="200.97" width="35.89" height="35.89" transform="translate(815.47 1268.42) rotate(-90)"/><rect class="cls-2" x="1124.84" y="200.97" width="35.89" height="35.89" transform="translate(851.36 1304.32) rotate(-90)"/><rect class="cls-2" x="1160.74" y="200.97" width="35.89" height="35.89" transform="translate(887.26 1340.21) rotate(-90)"/><rect class="cls-2" x="1088.95" y="129.18" width="35.89" height="35.89" transform="translate(887.26 1196.63) rotate(-90)"/><rect class="cls-2" x="1124.84" y="129.18" width="35.89" height="35.89" transform="translate(923.15 1232.53) rotate(-90)"/><rect class="cls-2" x="1160.74" y="129.18" width="35.89" height="35.89" transform="translate(959.05 1268.42) rotate(-90)"/><rect class="cls-2" x="1196.63" y="200.97" width="35.89" height="35.89" transform="translate(923.15 1376.1) rotate(-90)"/><rect class="cls-2" x="1196.63" y="165.07" width="35.89" height="35.89" transform="translate(959.05 1340.21) rotate(-90)"/><rect class="cls-2" x="1053.05" y="165.07" width="35.89" height="35.89" transform="translate(815.47 1196.63) rotate(-90)"/><rect class="cls-2" x="979.03" y="236.86" width="35.89" height="35.89" transform="translate(669.66 1194.4) rotate(-90)"/><rect class="cls-2" x="979.03" y="200.97" width="35.89" height="35.89" transform="translate(705.55 1158.5) rotate(-90)"/><rect class="cls-2" x="979.03" y="165.07" width="35.89" height="35.89" transform="translate(741.45 1122.61) rotate(-90)"/><rect class="cls-2" x="979.03" y="129.18" width="35.89" height="35.89" transform="translate(777.34 1086.71) rotate(-90)"/><rect class="cls-2" x="943.14" y="129.18" width="35.89" height="35.89" transform="translate(741.45 1050.82) rotate(-90)"/><rect class="cls-2" x="907.24" y="129.18" width="35.89" height="35.89" transform="translate(705.55 1014.93) rotate(-90)"/><rect class="cls-2" x="871.35" y="129.18" width="35.89" height="35.89" transform="translate(669.66 979.03) rotate(-90)"/><rect class="cls-2" x="835.45" y="165.07" width="35.89" height="35.89" transform="translate(597.87 979.03) rotate(-90)"/><rect class="cls-2" x="835.45" y="200.97" width="35.89" height="35.89" transform="translate(561.98 1014.93) rotate(-90)"/><rect class="cls-2" x="835.45" y="236.86" width="35.89" height="35.89" transform="translate(526.08 1050.82) rotate(-90)"/><rect class="cls-2" x="979.03" y="93.28" width="35.89" height="35.89" transform="translate(813.24 1050.82) rotate(-90)"/><rect class="cls-2" x="979.03" y="57.39" width="35.89" height="35.89" transform="translate(849.13 1014.93) rotate(-90)"/><rect class="cls-2" x="943.14" y="272.75" width="35.89" height="35.89" transform="translate(597.87 1194.4) rotate(-90)"/><rect class="cls-2" x="907.24" y="272.75" width="35.89" height="35.89" transform="translate(561.98 1158.5) rotate(-90)"/><rect class="cls-2" x="871.35" y="272.75" width="35.89" height="35.89" transform="translate(526.08 1122.61) rotate(-90)"/><rect class="cls-2" x="757.59" y="236.86" width="35.89" height="35.89" transform="translate(448.22 972.96) rotate(-90)"/><rect class="cls-2" x="757.59" y="200.97" width="35.89" height="35.89" transform="translate(484.11 937.06) rotate(-90)"/><rect class="cls-2" x="757.59" y="165.07" width="35.89" height="35.89" transform="translate(520.01 901.17) rotate(-90)"/><rect class="cls-2" x="721.7" y="129.18" width="35.89" height="35.89" transform="translate(520.01 829.38) rotate(-90)"/><rect class="cls-2" x="685.8" y="129.18" width="35.89" height="35.89" transform="translate(484.11 793.49) rotate(-90)"/><rect class="cls-2" x="649.91" y="129.18" width="35.89" height="35.89" transform="translate(448.22 757.59) rotate(-90)"/><rect class="cls-2" x="614.01" y="165.07" width="35.89" height="35.89" transform="translate(376.43 757.59) rotate(-90)"/><rect class="cls-2" x="614.01" y="200.97" width="35.89" height="35.89" transform="translate(340.54 793.49) rotate(-90)"/><rect class="cls-2" x="614.01" y="236.86" width="35.89" height="35.89" transform="translate(304.64 829.38) rotate(-90)"/><rect class="cls-2" x="721.7" y="272.75" width="35.89" height="35.89" transform="translate(376.43 972.96) rotate(-90)"/><rect class="cls-2" x="685.8" y="272.75" width="35.89" height="35.89" transform="translate(340.54 937.06) rotate(-90)"/><rect class="cls-2" x="649.91" y="272.75" width="35.89" height="35.89" transform="translate(304.64 901.17) rotate(-90)"/><rect class="cls-2" x="539.54" y="236.86" width="35.89" height="35.89" transform="translate(230.17 754.91) rotate(-90)"/><rect class="cls-2" x="539.54" y="165.07" width="35.89" height="35.89" transform="translate(301.96 683.12) rotate(-90)"/><rect class="cls-2" x="503.65" y="129.18" width="35.89" height="35.89" transform="translate(301.96 611.33) rotate(-90)"/><rect class="cls-2" x="467.75" y="129.18" width="35.89" height="35.89" transform="translate(266.07 575.44) rotate(-90)"/><rect class="cls-2" x="431.86" y="129.18" width="35.89" height="35.89" transform="translate(230.17 539.54) rotate(-90)"/><rect class="cls-2" x="395.97" y="165.07" width="35.89" height="35.89" transform="translate(158.38 539.54) rotate(-90)"/><rect class="cls-2" x="395.97" y="200.97" width="35.89" height="35.89" transform="translate(122.49 575.44) rotate(-90)"/><rect class="cls-2" x="395.97" y="236.86" width="35.89" height="35.89" transform="translate(86.59 611.33) rotate(-90)"/><rect class="cls-2" x="503.65" y="272.75" width="35.89" height="35.89" transform="translate(158.38 754.91) rotate(-90)"/><rect class="cls-2" x="467.75" y="272.75" width="35.89" height="35.89" transform="translate(122.49 719.02) rotate(-90)"/><rect class="cls-2" x="431.86" y="272.75" width="35.89" height="35.89" transform="translate(86.59 683.12) rotate(-90)"/></svg>