<?xml version="1.0" encoding="utf-8"?>
<!-- Generator: Adobe Illustrator 24.0.0, SVG Export Plug-In . SVG Version: 6.00 Build 0)  -->
<svg version="1.1" id="Capa_1" xmlns="http://www.w3.org/2000/svg" xmlns:xlink="http://www.w3.org/1999/xlink" x="0px" y="0px"
	 viewBox="0 0 25 25" style="enable-background:new 0 0 25 25;" xml:space="preserve">
<style type="text/css">
	.st0{fill:#9D9D9C;}
</style>
<path class="st0" d="M11,0.4C5.2,1,0.6,5.6,0,11.3c-0.7,5.9,2.7,11.1,7.9,13.1c0.4,0.1,0.8-0.1,0.8-0.6v-2c0,0-0.5,0.1-1.1,0.1
	c-1.8,0-2.5-1.5-2.6-2.4c-0.1-0.5-0.4-0.9-0.8-1.3c-0.4-0.1-0.5-0.1-0.5-0.3c0-0.3,0.4-0.3,0.5-0.3c0.8,0,1.4,0.9,1.6,1.3
	c0.6,1,1.4,1.3,1.8,1.3c0.5,0,0.9-0.1,1.1-0.3c0.1-0.9,0.5-1.8,1.3-2.3c-2.9-0.6-5-2.3-5-5c0-1.4,0.6-2.8,1.5-3.8
	c-0.3,0-0.4-0.6-0.4-1.5c0-0.5,0-1.3,0.4-2c0,0,1.8,0,3.5,1.6c0.6-0.3,1.5-0.4,2.4-0.4s1.8,0.1,2.5,0.4c1.6-1.6,3.5-1.6,3.5-1.6
	c0.3,0.8,0.3,1.5,0.3,2c0,1-0.1,1.5-0.3,1.8c0.9,1,1.5,2.3,1.5,3.8c0,2.8-2.1,4.4-5,5c0.8,0.6,1.3,1.8,1.3,2.9v3.3
	c0,0.4,0.4,0.8,0.9,0.6c4.6-1.9,7.9-6.4,7.9-11.6C24.9,5.4,18.5-0.5,11,0.4z"/>
</svg>
