<?xml version="1.0" encoding="utf-8"?>
<!-- Generator: Adobe Illustrator 24.0.0, SVG Export Plug-In . SVG Version: 6.00 Build 0)  -->
<svg version="1.1" id="Capa_1" xmlns="http://www.w3.org/2000/svg" xmlns:xlink="http://www.w3.org/1999/xlink" x="0px" y="0px"
	 viewBox="0 0 25 25" style="enable-background:new 0 0 25 25;" xml:space="preserve">
<style type="text/css">
	.st0{fill:#9D9D9C;}
</style>
<path class="st0" d="M22,0H3C1.3,0,0,1.3,0,3v19c0,1.6,1.3,3,3,3h19c1.6,0,3-1.3,3-3V3C25,1.3,23.7,0,22,0z M7.7,9.5v11.3H4.2V9.5
	H7.7z M4.2,6.2c0-0.8,0.7-1.5,1.8-1.5s1.7,0.6,1.8,1.5c0,0.8-0.7,1.5-1.8,1.5C4.9,7.7,4.2,7.1,4.2,6.2z M20.8,20.8h-3.6
	c0,0,0-5.5,0-6c0-1.2-0.6-2.4-2.1-2.4h0c-1.4,0-2,1.2-2,2.4c0,0.5,0,6,0,6H9.5V9.5h3.6V11c0,0,1.1-1.5,3.5-1.5
	c2.4,0,4.3,1.6,4.3,4.9V20.8z"/>
</svg>
