<?xml version="1.0" encoding="utf-8"?>
<!-- Generator: Adobe Illustrator 24.0.0, SVG Export Plug-In . SVG Version: 6.00 Build 0)  -->
<svg version="1.1" id="Capa_1" xmlns="http://www.w3.org/2000/svg" xmlns:xlink="http://www.w3.org/1999/xlink" x="0px" y="0px"
	 viewBox="0 0 25 25" style="enable-background:new 0 0 25 25;" xml:space="preserve">
<style type="text/css">
	.st0{fill:#9D9D9C;}
</style>
<path class="st0" d="M6.9,0C3.1,0,0,3.1,0,6.9v11.1C0,21.9,3.1,25,6.9,25h11.1c3.8,0,6.9-3.1,6.9-6.9V6.9C25,3.1,21.9,0,18.1,0H6.9z
	 M6.9,2.8h11.1c2.3,0,4.2,1.9,4.2,4.2v11.1c0,2.3-1.9,4.2-4.2,4.2H6.9c-2.3,0-4.2-1.9-4.2-4.2V6.9C2.8,4.6,4.6,2.8,6.9,2.8z
	 M19.4,4.2c-0.8,0-1.4,0.6-1.4,1.4s0.6,1.4,1.4,1.4s1.4-0.6,1.4-1.4S20.2,4.2,19.4,4.2z M12.5,5.6c-3.8,0-6.9,3.1-6.9,6.9
	s3.1,6.9,6.9,6.9s6.9-3.1,6.9-6.9S16.3,5.6,12.5,5.6z M12.5,8.3c2.3,0,4.2,1.9,4.2,4.2s-1.9,4.2-4.2,4.2s-4.2-1.9-4.2-4.2
	S10.2,8.3,12.5,8.3z"/>
</svg>
