<?xml version="1.0" encoding="utf-8"?>
<!-- Generator: Adobe Illustrator 24.0.0, SVG Export Plug-In . SVG Version: 6.00 Build 0)  -->
<svg version="1.1" id="Capa_1" xmlns="http://www.w3.org/2000/svg" xmlns:xlink="http://www.w3.org/1999/xlink" x="0px" y="0px"
	 viewBox="0 0 1947.1 476.5" style="enable-background:new 0 0 1947.1 476.5;" xml:space="preserve">
<style type="text/css">
	.st0{fill:#9B0000;}
</style>
<g>
	<path class="st0" d="M1688,473.9c-19.2-2.4-38.7-3.6-57.6-7.5c-97.4-19.7-166.2-91.1-182.1-187.9c-21.1-128.3,65-245.5,194.3-264.5
		c11.8-1.7,23.7-3.4,35.5-5c8.3,0,16.6,0,24.9,0c11.4,1.7,22.8,3.3,34.2,5c94,13.9,169.8,82.2,191.1,172.4c2.3,9.6,4,19.2,5.9,28.9
		c0,18.2,0,36.5,0,54.7c-0.7,1.5-1.8,2.9-2,4.4c-11,93.6-84.5,174.7-190,193.5c-16.2,2.9-32.8,4-49.2,5.9
		C1691.3,473.9,1689.7,473.9,1688,473.9z M1829.9,241.3c-0.1-82.9-58.5-142.8-139.2-143c-81.6-0.1-140.7,59.7-141,142.7
		c-0.3,82.9,59.1,143.8,140.2,143.7C1771.2,384.8,1830,324.7,1829.9,241.3z"/>
	<path class="st0" d="M862.3,465c-33.9,0-67,0.2-100.1-0.3c-3.2-0.1-7.7-4.3-9.2-7.7c-7.3-15.8-14-31.8-20.3-48
		c-2.8-7.2-6.4-10-14.4-10c-71.3,0.3-142.5,0.3-213.8,0c-7.6,0-10.9,2.7-13.4,9.5c-6.1,16.3-12.6,32.4-19.7,48.3
		c-1.5,3.4-5.9,7.7-9.1,7.8c-31.9,0.5-63.8,0.1-95.7,0c-0.7,0-1.3-0.8-2.8-1.8c13.8-31.2,27.7-62.5,41.6-93.8
		C455.6,256.3,506,143.7,555.8,30.8c4.4-10,9.7-13.3,20.3-13c26.1,0.8,52.2,0.4,78.3,0.1c6.7-0.1,10.5,1.9,13.3,8.3
		C732.3,171.1,797,315.8,861.6,460.6C861.9,461.3,861.9,462.2,862.3,465z M529.4,314.5c54.5,0,107.3,0,162,0
		c-27.8-64.8-55.1-128.4-83.7-195.2C580.7,186.5,555.2,250,529.4,314.5z"/>
	<path class="st0" d="M1207.7,381.2c75.9,0,149.4,0,223.6,0c0,28.1,0,54.8,0,82.7c-108.3,0-216.5,0-325.6,0c0-148.2,0-296.2,0-445
		c33.9,0,67.3,0,101.9,0C1207.7,139.4,1207.7,259.3,1207.7,381.2z"/>
	<path class="st0" d="M118.1,381.3c75.8,0,149.3,0,223.5,0c0,28,0,54.8,0,82.8c-4.5,0.3-8.9,0.8-13.3,0.8
		c-99.8,0-199.6-0.2-299.3,0.3c-12.4,0.1-14.9-3.9-14.9-15.5c0.4-138.7,0.4-277.4,0-416c0-12.7,3.4-16.2,16-15.8
		c28.9,0.9,57.8,0.3,88,0.3C118.1,139.4,118.1,259.3,118.1,381.3z"/>
	<path class="st0" d="M903.6,18.9c34.3,0,67.6,0,101.8,0c0,148.4,0,296.1,0,445c-33.8,0-67.4,0-101.8,0
		C903.6,315.9,903.6,168.2,903.6,18.9z"/>
	<path class="st0" d="M1656.5,165c16.2-0.2,29,12.2,29.5,28.8c0.4,15.8-13,30.3-28.2,30.4c-16.5,0.1-30.6-13-31.1-29.2
		C1626.1,179,1639.7,165.2,1656.5,165z"/>
	<path class="st0" d="M1740.4,180c16.7-0.2,30.2,12.2,30.3,27.8c0.1,16.7-11.9,29.1-28.5,29.4c-16.6,0.3-28.9-12-28.7-28.8
		C1713.7,193.4,1726.3,180.2,1740.4,180z"/>
	<path class="st0" d="M1639.2,304.8c-16.7,0-30.6-13.5-30.2-29.5c0.3-15.4,13.1-27.6,29.1-27.7c16.4-0.2,28,11.3,28.4,27.9
		C1666.7,291.2,1654,304.8,1639.2,304.8z"/>
	<path class="st0" d="M1724.8,317.8c-16.5,0.2-28.3-11.4-28.5-28c-0.2-14.9,12.5-28.8,26.7-29.2c16.7-0.5,30.8,12.9,30.7,29.2
		C1753.5,305.4,1741,317.6,1724.8,317.8z"/>
</g>
</svg>
