<?xml version="1.0" encoding="utf-8"?>
<!-- Generator: Adobe Illustrator 24.0.0, SVG Export Plug-In . SVG Version: 6.00 Build 0)  -->
<svg version="1.1" id="Capa_1" xmlns="http://www.w3.org/2000/svg" xmlns:xlink="http://www.w3.org/1999/xlink" x="0px" y="0px"
	 viewBox="0 0 985.2 984.6" style="enable-background:new 0 0 985.2 984.6;" xml:space="preserve">
<style type="text/css">
	.st0{fill:#FFFFFF;}
	.st1{fill:#00CD07;}
</style>
<title>IconSantimartz</title>
<path class="st0" d="M824.3,984.6c0-11-0.1-21.9,0-32.9c0-2.6,0.3-5.1,1-7.6c22-80.1,44.1-160.3,66.2-240.4
	c9.5-34.6,19-69.3,28.6-103.9c0.4-1.3,0.6-2.6,1-4.3c-4.9-0.9-9.7-0.3-14.5-0.4c-5-0.1-10.1,0-15.1,0h-59.2v-60.3h150.9
	c0.1,1.5,0.1,2.8,0.1,4.1c0,10.4,0.1,20.7,0,31.1c0,2.3-0.4,4.5-1,6.7c-24.2,87.4-48.4,174.9-72.6,262.3
	c-7.3,26.5-14.7,53.1-22.1,79.7c-0.4,1.3-0.6,2.6-0.9,3.8c0.1,0.4,0.1,0.5,0.2,0.6c0.1,0.1,0.3,0.1,0.4,0.2c0.1,0.1,0.3,0.1,0.4,0.1
	c0.5,0,0.9,0.1,1.4,0.1l93.3,0.1c0.2,0.1,0.5,0.1,0.7,0.2c0.2,0.5,0.4,1,0.4,1.5c0,19.8,0,39.6-0.1,59.4L824.3,984.6z"/>
<path class="st1" d="M682.6,984.6c-0.1-2.3-0.4-4.5-0.4-6.8c0-125.6,0-251.1,0-376.7v-7.3h-56.9v-58.7c3.3-0.9,159.9-1.1,165.5-0.2
	v58.8h-57v390.9H682.6z"/>
<path class="st1" d="M439.4,984.6V534.7c2-0.1,3.4-0.3,4.9-0.3c44,0,88,0,132.1,0c2.7,0,5.5,0.2,8.2,0.6c9,1.7,15.4,6.9,19.3,15.2
	c3.4,7.3,4.5,15.2,4.5,23.2c0.1,56.1,0.1,112.1,0,168.2c0.1,6.7-1,13.4-3.2,19.7c-3.6,10.1-10.5,16.3-21.3,17.4
	c-6,0.7-12.1,1-18.2,1.4c-1.7,0.1-3.3,0.2-5.6,0.3c0.4,1.8,0.7,3.4,1.2,4.9c15.3,54.5,30.7,109,46,163.5c2.9,10.4,5.8,20.8,8.7,31.2
	c0.4,1.5,0.6,3,0.9,4.5h-54c-0.1-0.9-0.3-1.8-0.5-2.7c-18.5-67.7-37-135.3-55.6-203c-0.7-2.5-1-5.1-1.1-7.6c-0.1-10.5,0-21,0-31.5
	v-5h50.5c1-7.3,0.7-139.3-0.3-142.4c-12.5-0.9-60.8-0.5-64.4,0.6v385.2c0,2.1,0.1,4.3,0.1,6.4H439.4z"/>
<path class="st1" d="M230,984.6c3.9-25.7,7.7-51.5,11.6-77.2c3.8-25.4,7.6-50.9,11.4-76.3c4.1-27.4,8.2-54.8,12.4-82.2
	c3.5-23.3,7-46.7,10.4-70c3.5-23.5,7-47,10.5-70.5c3.2-21.4,6.4-42.7,9.6-64.1c0.5-3.4,1.1-6.8,1.7-10.3h54.3
	c0.5,2.9,1.1,5.9,1.5,8.8c3.9,26.2,7.8,52.4,11.7,78.6c3.8,25.8,7.5,51.5,11.4,77.3c4.1,27.7,8.3,55.4,12.4,83.1
	c3.8,25.8,7.6,51.5,11.4,77.3c4.1,27.7,8.3,55.4,12.4,83.1c1.9,12.7,3.8,25.3,5.6,38c0.1,1.5,0.2,3,0.2,4.5h-51.2
	c-0.1-1.5-0.1-3-0.3-4.5c-2.4-19.5-4.8-39-7.2-58.5c-0.9-7.5-1.9-15-2.9-22.7h-64.6c-0.3,0.9-0.5,1.9-0.7,2.8
	c-2.2,18.3-4.4,36.6-6.7,54.9c-1.1,9.4-2.4,18.7-3.6,28.1L230,984.6z M349.5,840.7c-8.3-66.4-16.5-132.6-24.8-198.5h-1l-25,198.5
	H349.5z"/>
<path class="st0" d="M0.5,984.6C0.3,982.8,0,981,0,979.2c0-146.3,0-292.6,0-438.9v-5.6h49.1c9.6,43.1,19,86.2,28.4,129.5
	c9.3,43.1,19.5,86,27.7,128.1c2.4-20.3,8.2-41.3,12.8-62.6c11-50.7,22.2-101.4,33.3-152.1c2.8-12.9,5.7-25.9,8.5-38.8
	c0.3-1.3,0.7-2.6,1.1-4.1h48.9v449.9h-49.4c-0.2-2-0.5-3.9-0.5-5.9c0-72.1,0-144.2,0-216.3c0-8.8,0.7-17.7,1.2-26.5
	c0.3-4.9,0.7-9.9,1-14.8l-0.6-0.1c-14.4,73.7-28.8,147.5-43.2,221.3H91.8c-14.4-73.2-28.7-146.3-43-219.2c-0.6,2.5-0.7,5.1-0.4,7.7
	c0.2,2.6,0.5,5.2,0.6,7.7c0.3,13.3,0.9,26.5,0.9,39.8c0.1,68.7,0.1,137.4,0,206.2L0.5,984.6z"/>
<path class="st0" d="M985.2,473.4c-4.7,0.1-9.4,0.2-14.2,0.2c-12.5,0-25,0-37.5,0h-4.9c-1-3.6-1.2-467.2-0.3-473
	c1-0.2,1.9-0.4,2.9-0.4c16.9,0,33.8,0,50.7,0c1.1,0.1,2.1,0.2,3.2,0.4L985.2,473.4z"/>
<path class="st0" d="M825.6,473.5h-56.2c-0.5-13.7-0.1-27.4-0.2-41s0-27.1,0-40.7V63.2c-5.4-0.5-10.5-0.2-15.6-0.3
	c-5.3-0.1-10.7,0-16,0h-31c-1-3.4-1.3-57.1-0.3-62.3h182.9v62.2c-20.7,0.3-41.5,0-62,0.2c-0.2,0.2-0.4,0.4-0.5,0.5
	c-0.1,0.1-0.2,0.2-0.2,0.4c-0.1,0.1-0.1,0.3-0.1,0.4c0,0.2,0,0.3-0.1,0.5v0.9v0.9c0,134.9,0,269.7,0,404.6c0,0.3,0,0.6,0,0.9
	c0,0.2,0,0.3-0.1,0.5c0,0.1-0.1,0.3-0.4,1"/>
<path class="st0" d="M668.1,473.5H618c-30-97.1-60-194.3-90.1-291.5l-0.6,0.2c0.7,6.2,1.4,12.4,2,18.6c0.3,3.5,0.5,7,0.5,10.5
	c0,85.8,0,171.6,0,257.4v4.8h-55.1c-1-3.2-1.5-460.8-0.5-472.4c3.2-0.9,43.6-1.2,50.1-0.3c29.3,93.1,58.7,186.3,88.1,279.7
	c1.9-4.7,0.6-9.4,0.5-14c0-5-0.4-10-0.5-15.1s0-9.8,0-14.6V0.6h55.7V473.5z"/>
<path class="st0" d="M359.6,0c24.6,157.9,49.2,315.7,73.7,473.4h-56.8c-3.8-29.6-7.6-59.3-11.5-89.3h-72
	c-3.8,29.8-7.6,59.5-11.5,89.3h-56c-0.9-3.6,72.8-467.5,74-473.4H359.6z M329.4,112.8l-0.9-0.1c-9.3,70.1-18.5,140.2-27.8,210.4
	h56.1C347.7,252.9,338.5,182.8,329.4,112.8"/>
<path class="st0" d="M0.4,318.3h56.8c0.4,5.2,0.1,10.4,0.2,15.7s0,10.7,0,16v63.8h70c0.2-1.1,0.3-2.2,0.3-3.4c0-28.5,0-57,0.1-85.5
	c0-2.4-1-4.7-2.7-6.4c-37.1-43.3-74.2-86.6-111.2-129.9c-6.7-7.8-11.2-16.7-12.6-26.9c-0.7-4.7-1.1-9.4-1.1-14.1
	C0,113.5,0,79.3,0.1,45.2c-0.2-7,0.6-14,2.3-20.8C6.4,9.4,16,1.5,31.4,0.4c1.8-0.1,3.7-0.2,5.5-0.2c37,0,74.1,0,111.1,0
	c4.4,0,8.8,0.4,13.1,1.3c8.5,1.8,14.8,6.9,18.7,14.7C184,24.7,185,33.8,185,43c0.1,33.7,0.1,67.3,0,101v4.4
	c-3.7,1-51.4,1.3-57.4,0.3V60.2h-70c-0.1,1.7-0.2,3.2-0.2,4.7c0,25.4,0,50.9,0,76.3c-0.1,2.7,0.8,5.4,2.7,7.4
	c36.7,42.6,73.1,85.4,110,127.8c9.9,11.4,14.9,24.4,15,39.2c0.2,39.2,0.1,78.3,0,117.5c0.1,6.9-1.1,13.7-3.4,20.2
	c-4.5,12.5-13.5,19.1-26.7,20.2c-2.1,0.2-4.3,0.2-6.4,0.2c-37.5,0-75,0-112.4,0c-3.8,0-7.6-0.3-11.3-1c-9.9-1.9-16.5-8-20.5-17.1
	c-3.5-8-4.2-16.5-4.3-25.1C0,394.2-0.1,357.9,0,321.6C0,320.6,0.2,319.6,0.4,318.3"/>
</svg>
